<mxfile host="app.diagrams.net" agent="Mozilla/5.0 (Windows NT 10.0; Win64; x64) AppleWebKit/537.36 (KHTML, like Gecko) Chrome/136.0.0.0 Safari/537.36 Edg/136.0.0.0" version="27.0.6">
  <diagram name="Page-1" id="i2V7j2YP9wdAL8I4Vffb">
    <mxGraphModel dx="517" dy="189" grid="1" gridSize="10" guides="1" tooltips="1" connect="1" arrows="1" fold="1" page="1" pageScale="1" pageWidth="850" pageHeight="1100" math="0" shadow="0">
      <root>
        <mxCell id="0" />
        <mxCell id="1" parent="0" />
        <mxCell id="zqgnAZBkMfDK8BiEV5dY-49" value="" style="rounded=0;whiteSpace=wrap;html=1;" parent="1" vertex="1">
          <mxGeometry x="30" width="730" height="360" as="geometry" />
        </mxCell>
        <mxCell id="zqgnAZBkMfDK8BiEV5dY-1" value="I&lt;sup&gt;2&lt;/sup&gt;C Master" style="rounded=0;whiteSpace=wrap;html=1;fillColor=#e1d5e7;strokeColor=#9673a6;" parent="1" vertex="1">
          <mxGeometry x="40" y="120" width="160" height="80" as="geometry" />
        </mxCell>
        <mxCell id="zqgnAZBkMfDK8BiEV5dY-2" value="I&lt;sup&gt;2&lt;/sup&gt;C Slave 1" style="rounded=0;whiteSpace=wrap;html=1;fillColor=#dae8fc;strokeColor=#6c8ebf;" parent="1" vertex="1">
          <mxGeometry x="280" y="200" width="120" height="80" as="geometry" />
        </mxCell>
        <mxCell id="zqgnAZBkMfDK8BiEV5dY-4" value="I&lt;sup&gt;2&lt;/sup&gt;C Slave 2" style="rounded=0;whiteSpace=wrap;html=1;fillColor=#dae8fc;strokeColor=#6c8ebf;" parent="1" vertex="1">
          <mxGeometry x="440" y="200" width="120" height="80" as="geometry" />
        </mxCell>
        <mxCell id="zqgnAZBkMfDK8BiEV5dY-5" value="I&lt;sup&gt;2&lt;/sup&gt;C Slave 3" style="rounded=0;whiteSpace=wrap;html=1;fillColor=#dae8fc;strokeColor=#6c8ebf;" parent="1" vertex="1">
          <mxGeometry x="600" y="200" width="120" height="80" as="geometry" />
        </mxCell>
        <mxCell id="zqgnAZBkMfDK8BiEV5dY-6" value="" style="endArrow=none;html=1;rounded=0;" parent="1" source="zqgnAZBkMfDK8BiEV5dY-27" edge="1">
          <mxGeometry width="50" height="50" relative="1" as="geometry">
            <mxPoint x="120" y="320" as="sourcePoint" />
            <mxPoint x="660" y="320" as="targetPoint" />
          </mxGeometry>
        </mxCell>
        <mxCell id="zqgnAZBkMfDK8BiEV5dY-7" value="" style="endArrow=none;html=1;rounded=0;" parent="1" edge="1">
          <mxGeometry width="50" height="50" relative="1" as="geometry">
            <mxPoint x="120" y="320" as="sourcePoint" />
            <mxPoint x="120" y="200" as="targetPoint" />
          </mxGeometry>
        </mxCell>
        <mxCell id="zqgnAZBkMfDK8BiEV5dY-8" value="" style="endArrow=none;html=1;rounded=0;" parent="1" edge="1">
          <mxGeometry width="50" height="50" relative="1" as="geometry">
            <mxPoint x="660" y="320" as="sourcePoint" />
            <mxPoint x="660" y="280" as="targetPoint" />
          </mxGeometry>
        </mxCell>
        <mxCell id="zqgnAZBkMfDK8BiEV5dY-9" value="" style="endArrow=none;html=1;rounded=0;" parent="1" edge="1">
          <mxGeometry width="50" height="50" relative="1" as="geometry">
            <mxPoint x="499.71000000000004" y="320" as="sourcePoint" />
            <mxPoint x="499.71000000000004" y="280" as="targetPoint" />
          </mxGeometry>
        </mxCell>
        <mxCell id="zqgnAZBkMfDK8BiEV5dY-10" value="" style="endArrow=none;html=1;rounded=0;" parent="1" edge="1">
          <mxGeometry width="50" height="50" relative="1" as="geometry">
            <mxPoint x="339.71000000000004" y="320" as="sourcePoint" />
            <mxPoint x="339.71000000000004" y="280" as="targetPoint" />
          </mxGeometry>
        </mxCell>
        <mxCell id="zqgnAZBkMfDK8BiEV5dY-11" value="" style="endArrow=none;html=1;rounded=0;fillColor=#d5e8d4;strokeColor=#82b366;" parent="1" source="zqgnAZBkMfDK8BiEV5dY-31" edge="1">
          <mxGeometry width="50" height="50" relative="1" as="geometry">
            <mxPoint x="200" y="130" as="sourcePoint" />
            <mxPoint x="720" y="130" as="targetPoint" />
          </mxGeometry>
        </mxCell>
        <mxCell id="zqgnAZBkMfDK8BiEV5dY-12" value="" style="endArrow=none;html=1;rounded=0;fillColor=#f8cecc;strokeColor=#b85450;" parent="1" source="zqgnAZBkMfDK8BiEV5dY-36" edge="1">
          <mxGeometry width="50" height="50" relative="1" as="geometry">
            <mxPoint x="200" y="159.71" as="sourcePoint" />
            <mxPoint x="720" y="159.71" as="targetPoint" />
          </mxGeometry>
        </mxCell>
        <mxCell id="zqgnAZBkMfDK8BiEV5dY-13" value="" style="endArrow=none;html=1;rounded=0;fillColor=#f8cecc;strokeColor=#b85450;" parent="1" edge="1">
          <mxGeometry width="50" height="50" relative="1" as="geometry">
            <mxPoint x="360" y="200" as="sourcePoint" />
            <mxPoint x="360" y="160" as="targetPoint" />
          </mxGeometry>
        </mxCell>
        <mxCell id="zqgnAZBkMfDK8BiEV5dY-14" value="" style="endArrow=none;html=1;rounded=0;fillColor=#f8cecc;strokeColor=#b85450;" parent="1" edge="1">
          <mxGeometry width="50" height="50" relative="1" as="geometry">
            <mxPoint x="520" y="200" as="sourcePoint" />
            <mxPoint x="520" y="160" as="targetPoint" />
          </mxGeometry>
        </mxCell>
        <mxCell id="zqgnAZBkMfDK8BiEV5dY-15" value="" style="endArrow=none;html=1;rounded=0;fillColor=#f8cecc;strokeColor=#b85450;" parent="1" edge="1">
          <mxGeometry width="50" height="50" relative="1" as="geometry">
            <mxPoint x="520" y="200" as="sourcePoint" />
            <mxPoint x="520" y="160" as="targetPoint" />
          </mxGeometry>
        </mxCell>
        <mxCell id="zqgnAZBkMfDK8BiEV5dY-16" value="" style="endArrow=none;html=1;rounded=0;fillColor=#f8cecc;strokeColor=#b85450;" parent="1" edge="1">
          <mxGeometry width="50" height="50" relative="1" as="geometry">
            <mxPoint x="680" y="200" as="sourcePoint" />
            <mxPoint x="680" y="160" as="targetPoint" />
          </mxGeometry>
        </mxCell>
        <mxCell id="zqgnAZBkMfDK8BiEV5dY-17" value="" style="endArrow=none;html=1;rounded=0;fillColor=#d5e8d4;strokeColor=#82b366;" parent="1" edge="1">
          <mxGeometry width="50" height="50" relative="1" as="geometry">
            <mxPoint x="320" y="200" as="sourcePoint" />
            <mxPoint x="320" y="130" as="targetPoint" />
          </mxGeometry>
        </mxCell>
        <mxCell id="zqgnAZBkMfDK8BiEV5dY-18" value="" style="endArrow=none;html=1;rounded=0;fillColor=#d5e8d4;strokeColor=#82b366;" parent="1" edge="1">
          <mxGeometry width="50" height="50" relative="1" as="geometry">
            <mxPoint x="480" y="200" as="sourcePoint" />
            <mxPoint x="480" y="130" as="targetPoint" />
          </mxGeometry>
        </mxCell>
        <mxCell id="zqgnAZBkMfDK8BiEV5dY-19" value="" style="endArrow=none;html=1;rounded=0;fillColor=#d5e8d4;strokeColor=#82b366;" parent="1" edge="1">
          <mxGeometry width="50" height="50" relative="1" as="geometry">
            <mxPoint x="640" y="200" as="sourcePoint" />
            <mxPoint x="640" y="130" as="targetPoint" />
          </mxGeometry>
        </mxCell>
        <mxCell id="zqgnAZBkMfDK8BiEV5dY-22" value="" style="endArrow=none;html=1;rounded=0;entryX=0;entryY=0.5;entryDx=0;entryDy=0;fillColor=#d5e8d4;strokeColor=#82b366;" parent="1" target="zqgnAZBkMfDK8BiEV5dY-20" edge="1">
          <mxGeometry width="50" height="50" relative="1" as="geometry">
            <mxPoint x="360" y="130" as="sourcePoint" />
            <mxPoint x="280" y="50" as="targetPoint" />
          </mxGeometry>
        </mxCell>
        <mxCell id="zqgnAZBkMfDK8BiEV5dY-23" value="" style="endArrow=none;html=1;rounded=0;entryX=0;entryY=0.5;entryDx=0;entryDy=0;fillColor=#f8cecc;strokeColor=#b85450;" parent="1" target="zqgnAZBkMfDK8BiEV5dY-21" edge="1">
          <mxGeometry width="50" height="50" relative="1" as="geometry">
            <mxPoint x="400" y="160" as="sourcePoint" />
            <mxPoint x="400" y="110" as="targetPoint" />
          </mxGeometry>
        </mxCell>
        <mxCell id="zqgnAZBkMfDK8BiEV5dY-21" value="" style="rounded=0;whiteSpace=wrap;html=1;rotation=-90;" parent="1" vertex="1">
          <mxGeometry x="380" y="80" width="40" height="10" as="geometry" />
        </mxCell>
        <mxCell id="zqgnAZBkMfDK8BiEV5dY-20" value="" style="rounded=0;whiteSpace=wrap;html=1;rotation=-90;" parent="1" vertex="1">
          <mxGeometry x="340" y="80" width="40" height="10" as="geometry" />
        </mxCell>
        <mxCell id="zqgnAZBkMfDK8BiEV5dY-24" value="" style="endArrow=none;html=1;rounded=0;exitX=1;exitY=0.5;exitDx=0;exitDy=0;entryX=1;entryY=0.5;entryDx=0;entryDy=0;" parent="1" source="zqgnAZBkMfDK8BiEV5dY-20" target="zqgnAZBkMfDK8BiEV5dY-21" edge="1">
          <mxGeometry width="50" height="50" relative="1" as="geometry">
            <mxPoint x="360" y="60" as="sourcePoint" />
            <mxPoint x="410" y="40" as="targetPoint" />
            <Array as="points">
              <mxPoint x="360" y="40" />
              <mxPoint x="400" y="40" />
            </Array>
          </mxGeometry>
        </mxCell>
        <mxCell id="zqgnAZBkMfDK8BiEV5dY-25" value="" style="endArrow=none;html=1;rounded=0;" parent="1" edge="1">
          <mxGeometry width="50" height="50" relative="1" as="geometry">
            <mxPoint x="380" y="40" as="sourcePoint" />
            <mxPoint x="380" y="20" as="targetPoint" />
          </mxGeometry>
        </mxCell>
        <mxCell id="zqgnAZBkMfDK8BiEV5dY-26" value="" style="ellipse;whiteSpace=wrap;html=1;aspect=fixed;fillColor=#000000;strokeColor=none;" parent="1" vertex="1">
          <mxGeometry x="335" y="314" width="10" height="10" as="geometry" />
        </mxCell>
        <mxCell id="zqgnAZBkMfDK8BiEV5dY-28" value="" style="endArrow=none;html=1;rounded=0;" parent="1" target="zqgnAZBkMfDK8BiEV5dY-27" edge="1">
          <mxGeometry width="50" height="50" relative="1" as="geometry">
            <mxPoint x="120" y="320" as="sourcePoint" />
            <mxPoint x="660" y="320" as="targetPoint" />
          </mxGeometry>
        </mxCell>
        <mxCell id="zqgnAZBkMfDK8BiEV5dY-27" value="" style="ellipse;whiteSpace=wrap;html=1;aspect=fixed;fillColor=#000000;strokeColor=none;" parent="1" vertex="1">
          <mxGeometry x="495" y="314" width="10" height="10" as="geometry" />
        </mxCell>
        <mxCell id="zqgnAZBkMfDK8BiEV5dY-30" value="" style="ellipse;whiteSpace=wrap;html=1;aspect=fixed;fillColor=#82B366;strokeColor=none;" parent="1" vertex="1">
          <mxGeometry x="315" y="125" width="10" height="10" as="geometry" />
        </mxCell>
        <mxCell id="zqgnAZBkMfDK8BiEV5dY-32" value="" style="endArrow=none;html=1;rounded=0;fillColor=#d5e8d4;strokeColor=#82b366;" parent="1" target="zqgnAZBkMfDK8BiEV5dY-31" edge="1">
          <mxGeometry width="50" height="50" relative="1" as="geometry">
            <mxPoint x="200" y="130" as="sourcePoint" />
            <mxPoint x="720" y="130" as="targetPoint" />
          </mxGeometry>
        </mxCell>
        <mxCell id="zqgnAZBkMfDK8BiEV5dY-31" value="" style="ellipse;whiteSpace=wrap;html=1;aspect=fixed;fillColor=#82B366;strokeColor=none;" parent="1" vertex="1">
          <mxGeometry x="355" y="125" width="10" height="10" as="geometry" />
        </mxCell>
        <mxCell id="zqgnAZBkMfDK8BiEV5dY-33" value="" style="ellipse;whiteSpace=wrap;html=1;aspect=fixed;fillColor=#82B366;strokeColor=none;" parent="1" vertex="1">
          <mxGeometry x="475" y="125" width="10" height="10" as="geometry" />
        </mxCell>
        <mxCell id="zqgnAZBkMfDK8BiEV5dY-34" value="" style="ellipse;whiteSpace=wrap;html=1;aspect=fixed;fillColor=#82B366;strokeColor=none;" parent="1" vertex="1">
          <mxGeometry x="635" y="125" width="10" height="10" as="geometry" />
        </mxCell>
        <mxCell id="zqgnAZBkMfDK8BiEV5dY-35" value="" style="ellipse;whiteSpace=wrap;html=1;aspect=fixed;fillColor=#B85450;strokeColor=none;" parent="1" vertex="1">
          <mxGeometry x="355" y="155" width="10" height="10" as="geometry" />
        </mxCell>
        <mxCell id="zqgnAZBkMfDK8BiEV5dY-37" value="" style="endArrow=none;html=1;rounded=0;fillColor=#f8cecc;strokeColor=#b85450;" parent="1" target="zqgnAZBkMfDK8BiEV5dY-36" edge="1">
          <mxGeometry width="50" height="50" relative="1" as="geometry">
            <mxPoint x="200" y="159.71" as="sourcePoint" />
            <mxPoint x="720" y="159.71" as="targetPoint" />
          </mxGeometry>
        </mxCell>
        <mxCell id="zqgnAZBkMfDK8BiEV5dY-36" value="" style="ellipse;whiteSpace=wrap;html=1;aspect=fixed;fillColor=#B85450;strokeColor=none;" parent="1" vertex="1">
          <mxGeometry x="395" y="155" width="10" height="10" as="geometry" />
        </mxCell>
        <mxCell id="zqgnAZBkMfDK8BiEV5dY-38" value="" style="ellipse;whiteSpace=wrap;html=1;aspect=fixed;fillColor=#B85450;strokeColor=none;" parent="1" vertex="1">
          <mxGeometry x="515" y="155" width="10" height="10" as="geometry" />
        </mxCell>
        <mxCell id="zqgnAZBkMfDK8BiEV5dY-39" value="" style="ellipse;whiteSpace=wrap;html=1;aspect=fixed;fillColor=#B85450;strokeColor=none;" parent="1" vertex="1">
          <mxGeometry x="675" y="155" width="10" height="10" as="geometry" />
        </mxCell>
        <mxCell id="zqgnAZBkMfDK8BiEV5dY-40" value="&lt;font style=&quot;color: rgb(130, 179, 102);&quot;&gt;SDA&lt;/font&gt;" style="text;html=1;align=center;verticalAlign=middle;whiteSpace=wrap;rounded=0;fontFamily=Helvetica;fontSize=12;fontColor=default;" parent="1" vertex="1">
          <mxGeometry x="720" y="115" width="40" height="30" as="geometry" />
        </mxCell>
        <mxCell id="zqgnAZBkMfDK8BiEV5dY-41" value="&lt;font style=&quot;color: rgb(184, 84, 80);&quot;&gt;SCL&lt;/font&gt;" style="text;html=1;align=center;verticalAlign=middle;whiteSpace=wrap;rounded=0;fontFamily=Helvetica;fontSize=12;fontColor=default;" parent="1" vertex="1">
          <mxGeometry x="720" y="145" width="40" height="30" as="geometry" />
        </mxCell>
        <mxCell id="zqgnAZBkMfDK8BiEV5dY-42" value="" style="endArrow=none;html=1;rounded=0;" parent="1" edge="1">
          <mxGeometry width="50" height="50" relative="1" as="geometry">
            <mxPoint x="500" y="340" as="sourcePoint" />
            <mxPoint x="500" y="320" as="targetPoint" />
          </mxGeometry>
        </mxCell>
        <mxCell id="zqgnAZBkMfDK8BiEV5dY-43" value="" style="endArrow=none;html=1;rounded=0;" parent="1" edge="1">
          <mxGeometry width="50" height="50" relative="1" as="geometry">
            <mxPoint x="484.5" y="340" as="sourcePoint" />
            <mxPoint x="515.5" y="340" as="targetPoint" />
          </mxGeometry>
        </mxCell>
        <mxCell id="zqgnAZBkMfDK8BiEV5dY-44" value="" style="endArrow=none;html=1;rounded=0;" parent="1" edge="1">
          <mxGeometry width="50" height="50" relative="1" as="geometry">
            <mxPoint x="490" y="345" as="sourcePoint" />
            <mxPoint x="510" y="345" as="targetPoint" />
          </mxGeometry>
        </mxCell>
        <mxCell id="zqgnAZBkMfDK8BiEV5dY-45" value="" style="endArrow=none;html=1;rounded=0;" parent="1" edge="1">
          <mxGeometry width="50" height="50" relative="1" as="geometry">
            <mxPoint x="495" y="350" as="sourcePoint" />
            <mxPoint x="505" y="350" as="targetPoint" />
          </mxGeometry>
        </mxCell>
        <mxCell id="zqgnAZBkMfDK8BiEV5dY-46" value="" style="pointerEvents=1;verticalLabelPosition=bottom;shadow=0;dashed=0;align=center;html=1;verticalAlign=top;shape=mxgraph.electrical.signal_sources.signal_ground;rotation=-180;" parent="1" vertex="1">
          <mxGeometry x="375" y="11" width="10" height="10" as="geometry" />
        </mxCell>
        <mxCell id="zqgnAZBkMfDK8BiEV5dY-47" value="Vcc" style="text;html=1;align=center;verticalAlign=middle;whiteSpace=wrap;rounded=0;" parent="1" vertex="1">
          <mxGeometry x="370" y="1" width="60" height="30" as="geometry" />
        </mxCell>
        <mxCell id="zqgnAZBkMfDK8BiEV5dY-48" value="Pull-up&lt;div&gt;Resistors&lt;/div&gt;" style="text;html=1;align=left;verticalAlign=middle;whiteSpace=wrap;rounded=0;" parent="1" vertex="1">
          <mxGeometry x="415" y="70" width="60" height="30" as="geometry" />
        </mxCell>
      </root>
    </mxGraphModel>
  </diagram>
</mxfile>
